<?xml version="1.0" standalone="no"?>
<!DOCTYPE svg PUBLIC "-//W3C//DTD SVG 20010904//EN"
 "http://www.w3.org/TR/2001/REC-SVG-20010904/DTD/svg10.dtd">
<svg version="1.0" xmlns="http://www.w3.org/2000/svg"
 width="1584.000000pt" height="396.000000pt" viewBox="0 0 1584.000000 396.000000"
 preserveAspectRatio="xMidYMid meet">

<g transform="translate(0.000000,396.000000) scale(0.100000,-0.100000)"
fill="#000000" stroke="none">
<path d="M0 1980 l0 -1980 6196 0 6195 0 322 268 c1416 1179 1510 1255 1531
1239 18 -14 14 -21 -37 -65 -21 -17 -33 -32 -28 -32 5 0 12 4 15 9 6 10 56 12
57 2 6 -45 5 -49 -18 -49 -21 1 -28 9 -24 31 1 5 -3 6 -8 2 -6 -3 -8 -12 -5
-19 3 -7 -2 -16 -12 -20 -12 -5 -15 -2 -10 11 6 14 4 15 -5 6 -6 -6 -9 -16 -5
-21 6 -10 48 -8 66 3 7 4 10 0 8 -11 -2 -12 2 -18 11 -16 7 1 20 -5 28 -15 8
-10 11 -12 8 -5 -4 8 1 19 11 27 16 11 15 12 -15 9 -27 -3 -31 -1 -22 9 6 8 7
17 3 21 -4 4 2 15 13 23 15 12 16 14 3 10 -12 -4 -16 -1 -15 14 1 10 5 19 10
19 4 0 7 6 5 14 -2 8 1 14 7 13 5 -1 10 -13 10 -27 1 -31 14 -60 27 -60 5 0 6
5 3 11 -10 15 -13 59 -5 64 4 2 7 -1 8 -8 0 -7 3 -24 5 -40 3 -18 -1 -31 -12
-37 -9 -4 -13 -12 -8 -16 10 -10 48 26 40 39 -4 6 -1 7 6 3 9 -6 9 -12 -3 -25
-9 -10 -13 -21 -9 -26 5 -4 3 -5 -4 -2 -19 11 -45 -21 -33 -42 5 -10 6 -22 2
-26 -4 -5 -2 -5 5 -1 7 4 10 13 6 21 -3 8 0 15 6 15 11 0 15 -13 12 -37 -1 -7
13 1 31 18 18 17 45 38 61 47 15 9 25 22 23 29 -3 7 0 15 6 19 6 4 8 3 5 -3
-4 -6 3 -13 14 -16 27 -7 21 -17 -61 -85 -367 -307 -398 -336 -387 -364 3 -8
6 -6 6 5 1 24 26 47 228 209 169 135 236 183 154 110 -36 -32 -43 -43 -38 -63
4 -13 106 -143 227 -288 121 -145 220 -269 220 -277 0 -7 6 -15 12 -17 8 -4 9
-6 2 -6 -12 -1 -53 42 -151 159 -77 93 -85 92 -205 -8 -150 -127 -160 -138
-153 -164 4 -13 19 -36 34 -53 15 -16 58 -68 96 -115 38 -47 74 -88 79 -92 27
-19 59 -1 179 98 113 93 127 109 128 137 0 18 3 26 6 19 2 -6 11 -12 19 -12 9
0 13 -4 10 -9 -3 -4 1 -17 9 -27 16 -21 19 -35 8 -33 -28 5 -55 -13 -167 -107
-89 -75 -126 -113 -126 -128 0 -12 42 -73 101 -144 l101 -122 514 0 514 0 0
1980 0 1980 -247 0 -248 0 -44 -88 c-25 -48 -70 -134 -101 -192 -31 -58 -87
-163 -125 -235 -98 -188 -191 -357 -210 -380 -9 -11 -5 0 8 25 13 25 68 131
122 235 97 188 266 510 311 593 l24 42 -1814 0 -1814 0 -17 -52 c-28 -86 -75
-189 -113 -245 -38 -58 -56 -73 -24 -20 43 69 142 288 142 312 0 3 -125 5
-277 5 l-277 0 -41 -37 c-27 -26 -31 -28 -12 -7 15 16 27 33 27 37 0 4 -224 7
-497 7 l-497 0 34 -35 c47 -48 165 -110 247 -131 71 -17 103 -34 66 -34 -12 0
-34 5 -50 11 -38 14 -114 22 -91 9 42 -25 149 -43 253 -44 91 0 102 -2 65 -9
-25 -4 -83 -6 -130 -3 -156 9 -311 74 -424 177 l-64 59 -5011 0 -5011 0 0
-1980z m10010 1739 c-7 -11 -14 -19 -16 -16 -7 7 7 37 17 37 6 0 5 -9 -1 -21z
m2687 -505 c-3 -3 -12 -4 -19 -1 -8 3 -5 6 6 6 11 1 17 -2 13 -5z m58 -14 c8
-13 -5 -13 -25 0 -13 8 -13 10 2 10 9 0 20 -4 23 -10z m-5 -90 c0 -5 -4 -10
-10 -10 -5 0 -10 5 -10 10 0 6 5 10 10 10 6 0 10 -4 10 -10z m-125 -280 c3 -5
2 -10 -4 -10 -5 0 -13 5 -16 10 -3 6 -2 10 4 10 5 0 13 -4 16 -10z m-890 -124
c118 -56 149 -95 358 -442 90 -149 108 -194 76 -194 -5 0 -9 -7 -9 -16 0 -11
-6 -13 -19 -9 -12 4 -21 1 -23 -8 -8 -37 -50 11 -147 169 -146 238 -175 284
-181 284 -3 0 -13 -14 -22 -30 -23 -41 -77 -64 -115 -49 -47 18 -52 26 -41 67
14 49 -12 124 -61 175 l-36 38 28 25 c42 36 104 33 192 -10z m-22 -566 c27
-14 62 -39 78 -57 58 -66 50 -123 -21 -159 -25 -13 -45 -28 -45 -34 0 -6 108
-68 240 -137 132 -69 244 -129 249 -133 17 -16 -8 -84 -36 -98 -25 -12 -38 -7
-180 66 -84 44 -189 98 -234 121 -131 67 -208 146 -185 189 14 26 41 47 60 47
8 0 17 8 19 18 2 11 -3 17 -15 17 -11 0 -24 12 -31 30 -8 16 -30 39 -51 51
-55 31 -65 51 -39 84 20 25 26 27 82 23 38 -2 79 -13 109 -28z m2544 -688 c0
-10 -9 -18 -19 -18 -22 0 -22 1 -2 20 20 20 23 20 21 -2z m140 -47 c0 -8 -4
-12 -9 -9 -5 3 -6 10 -3 15 9 13 12 11 12 -6z m118 -5 c-3 -5 -12 -10 -18 -10
-7 0 -6 4 3 10 19 12 23 12 15 0z m-82 -35 c-3 -8 -8 -15 -12 -15 -3 0 -19
-11 -35 -25 -33 -28 -45 -33 -26 -10 11 13 8 14 -19 11 -17 -2 -28 1 -25 6 3
5 11 8 17 7 28 -3 38 2 35 19 -2 13 4 17 30 15 21 -1 30 2 26 9 -4 7 -2 8 4 4
6 -4 9 -13 5 -21z m752 -425 c-3 -5 -12 -10 -18 -10 -7 0 -6 4 3 10 19 12 23
12 15 0z"/>
<path d="M11619 2634 c-21 -25 26 -108 64 -112 48 -6 49 50 2 101 -29 31 -47
34 -66 11z"/>
<path d="M11647 2113 c-19 -19 -5 -51 32 -71 46 -26 77 -28 85 -6 8 21 -9 41
-55 65 -41 20 -52 23 -62 12z"/>
<path d="M14378 1363 c10 -4 10 -8 0 -21 -12 -13 -10 -14 10 -3 12 6 22 15 22
19 0 4 -10 8 -22 9 -13 0 -17 -1 -10 -4z"/>
<path d="M10104 3905 c57 -53 76 -65 76 -46 0 21 -93 101 -118 101 -11 -1 2
-19 42 -55z"/>
<path d="M10200 3836 c0 -5 87 -46 97 -46 3 0 -4 11 -17 25 -14 15 -35 25 -52
25 -15 0 -28 -2 -28 -4z"/>
<path d="M14280 1400 c-13 -8 -13 -11 1 -25 14 -14 17 -14 22 -2 8 21 -6 38
-23 27z"/>
<path d="M14204 1329 c-5 -8 -3 -9 6 -4 10 6 12 4 7 -8 -3 -9 -3 -18 1 -21 4
-3 8 4 9 14 2 23 -13 35 -23 19z"/>
<path d="M14177 1315 c6 -11 8 -25 6 -32 -2 -6 0 -14 5 -17 13 -8 6 45 -8 58
-10 8 -10 6 -3 -9z"/>
<path d="M14240 1281 c-8 -6 -18 -7 -24 -4 -5 3 -6 1 -2 -5 5 -8 13 -9 25 -2
10 5 22 6 26 2 5 -4 5 -1 1 6 -8 14 -7 14 -26 3z"/>
<path d="M14285 1270 c2 -27 10 -33 12 -10 1 11 -2 22 -6 24 -4 3 -7 -4 -6
-14z"/>
<path d="M14289 1144 c-7 -9 -54 -50 -104 -92 -101 -84 -125 -108 -125 -127 0
-12 193 -253 214 -267 24 -16 47 -5 137 68 126 101 159 134 159 157 0 10 -48
77 -107 148 -88 105 -113 129 -134 129 -15 0 -33 -7 -40 -16z"/>
<path d="M14450 396 c0 -2 8 -10 18 -17 15 -13 16 -12 3 4 -13 16 -21 21 -21
13z"/>
<path d="M14512 321 c184 -230 261 -321 269 -321 6 0 -13 29 -43 63 -29 35
-95 114 -147 175 -51 62 -96 112 -98 112 -2 0 6 -13 19 -29z"/>
</g>
</svg>
