<?xml version="1.0" encoding="utf-8"?>
<!-- Generator: Adobe Illustrator 25.0.0, SVG Export Plug-In . SVG Version: 6.00 Build 0)  -->
<svg version="1.1" xmlns="http://www.w3.org/2000/svg" xmlns:xlink="http://www.w3.org/1999/xlink" x="0px" y="0px"
	 viewBox="0 0 405.2 127.3" style="enable-background:new 0 0 405.2 127.3;" xml:space="preserve">
<style type="text/css">
	.st0{fill:#263238;}
	.st1{clip-path:url(#SVGID_2_);}
	.st2{fill:#FF4081;}
	.st3{fill:#40C4FF;}
	.st4{opacity:0.63;fill:#263238;}
	.st5{opacity:0.38;}
	.st6{fill:#FFD740;}
	.st7{opacity:0.36;fill:none;stroke:#37474F;stroke-width:5;stroke-miterlimit:10;}
	.st8{fill:none;stroke:#FFD740;stroke-width:5;stroke-miterlimit:10;}
	.st9{fill:none;stroke:#FFD740;stroke-width:3;stroke-miterlimit:10;}
	.st10{opacity:0.42;}
	.st11{fill:none;stroke:#37474F;stroke-width:9;stroke-miterlimit:10;}
	.st12{fill:none;stroke:#FFD740;stroke-width:9;stroke-miterlimit:10;}
	.st13{fill:none;stroke:#FF4081;stroke-width:3;stroke-miterlimit:10;}
	.st14{fill:#D500F9;}
</style>
<g id="BACKGROUND">
</g>
<g id="OBJECTS">
	<g>
		<g>
			<rect transform="matrix(-1 -1.224647e-16 1.224647e-16 -1 405.1573 127.3213)" class="st0" width="405.2" height="127.3"/>
		</g>
		<g>
			<defs>
				<rect id="SVGID_1_" transform="matrix(-1 -1.224647e-16 1.224647e-16 -1 405.1573 127.3213)" width="405.2" height="127.3"/>
			</defs>
			<clipPath id="SVGID_2_">
				<use xlink:href="#SVGID_1_"  style="overflow:visible;"/>
			</clipPath>
			<g class="st1">
				<path class="st2" d="M326,134.1L326,134.1c13.8,13.7,36.1,13.7,49.9,0l91.3-91c13.8-13.7,13.8-36,0-49.8l0,0
					c-13.8-13.7-36.1-13.7-49.9,0l-91.3,91C312.2,98,312.2,120.3,326,134.1z"/>
				<path class="st3" d="M293.7,153.8L293.7,153.8c5.2,5.2,13.6,5.2,18.8,0l34.4-34.3c5.2-5.2,5.2-13.6,0-18.7v0
					c-5.2-5.2-13.6-5.2-18.8,0l-34.4,34.3C288.5,140.3,288.5,148.6,293.7,153.8z"/>
				<path class="st4" d="M235.4,105.3L235.4,105.3c17.6,17.6,46.2,17.6,63.8,0L415.9-11c17.6-17.6,17.6-46.1,0-63.6v0
					c-17.6-17.6-46.2-17.6-63.8,0L235.4,41.7C217.8,59.2,217.8,87.7,235.4,105.3z"/>
				<path class="st3" d="M234.4,98.3L234.4,98.3c17.6,17.6,46.2,17.6,63.8,0L414.9-18c17.6-17.6,17.6-46.1,0-63.6v0
					c-17.6-17.6-46.2-17.6-63.8,0L234.4,34.7C216.8,52.2,216.8,80.7,234.4,98.3z"/>
				<g class="st5">
					
						<image style="overflow:visible;opacity:0.75;" width="124" height="124" xlink:href="1A731932.png"  transform="matrix(1 0 0 1 310.5786 -20.0642)">
					</image>
					<g>
						<path class="st0" d="M323.4,84.7L323.4,84.7c8.9,8.9,23.4,8.9,32.4,0l59.2-59c8.9-8.9,8.9-23.4,0-32.3v0
							c-8.9-8.9-23.4-8.9-32.4,0l-59.2,59C314.4,61.3,314.4,75.8,323.4,84.7z"/>
					</g>
				</g>
				<g>
					
						<image style="overflow:visible;opacity:0.75;" width="124" height="124" xlink:href="1A731936.png"  transform="matrix(1 0 0 1 309.5786 -24.0642)">
					</image>
					<g>
						<path class="st6" d="M322.4,80.7L322.4,80.7c8.9,8.9,23.4,8.9,32.4,0l59.2-59c8.9-8.9,8.9-23.4,0-32.3v0
							c-8.9-8.9-23.4-8.9-32.4,0l-59.2,59C313.4,57.3,313.4,71.8,322.4,80.7z"/>
					</g>
				</g>
				<path class="st0" d="M276,73.3L276,73.3c3.7,3.7,9.8,3.7,13.5,0l24.8-24.7c3.7-3.7,3.7-9.8,0-13.5l0,0c-3.7-3.7-9.8-3.7-13.5,0
					L276,59.8C272.3,63.5,272.3,69.6,276,73.3z"/>
				<path class="st3" d="M264.1,21.1L264.1,21.1c1.8,1.8,4.8,1.8,6.6,0l82-81.7c1.8-1.8,1.8-4.8,0-6.6l0,0c-1.8-1.8-4.8-1.8-6.6,0
					l-82,81.7C262.3,16.3,262.3,19.3,264.1,21.1z"/>
				<path class="st0" d="M343,71L343,71c1.8,1.8,4.8,1.8,6.6,0l82-81.7c1.8-1.8,1.8-4.8,0-6.6l0,0c-1.8-1.8-4.8-1.8-6.6,0l-82,81.7
					C341.2,66.3,341.2,69.2,343,71z"/>
				<path class="st6" d="M232.7,137.9L232.7,137.9c1.1,1.1,2.9,1.1,3.9,0l49.1-49c1.1-1.1,1.1-2.8,0-3.9l0,0c-1.1-1.1-2.9-1.1-3.9,0
					l-49.1,49C231.7,135.1,231.7,136.9,232.7,137.9z"/>
				<ellipse class="st2" cx="253.5" cy="95.7" rx="9" ry="9"/>
				<ellipse class="st7" cx="247.9" cy="25.5" rx="9" ry="9"/>
				<ellipse class="st8" cx="245.9" cy="22.5" rx="9" ry="9"/>
				<path class="st9" d="M228,116.6c0,2.5,2,4.6,4.6,4.6c2.5,0,4.6-2,4.6-4.6c0-2.5-2-4.6-4.6-4.6C230,112.1,228,114.1,228,116.6z"
					/>
				<path class="st0" d="M387.5,78.7c0,2.5,2,4.6,4.6,4.6c2.5,0,4.6-2,4.6-4.6s-2-4.6-4.6-4.6C389.5,74.2,387.5,76.2,387.5,78.7z"/>
				<g class="st10">
					<line class="st11" x1="362" y1="92.6" x2="383.1" y2="113.7"/>
					<line class="st11" x1="362" y1="113.7" x2="383.1" y2="92.6"/>
				</g>
				<g>
					<line class="st12" x1="361" y1="88.6" x2="382.1" y2="109.7"/>
					<line class="st12" x1="361" y1="109.7" x2="382.1" y2="88.6"/>
				</g>
				<g>
					<line class="st13" x1="299.6" y1="102.3" x2="308.4" y2="111.1"/>
					<line class="st13" x1="299.6" y1="111.1" x2="308.4" y2="102.3"/>
				</g>
				<g>
					<polygon class="st3" points="194.3,79.4 198.1,79.2 201.7,82.7 190.4,83.2 190.9,72 194.5,75.5 					"/>
					<polygon class="st3" points="200.8,72.8 204.7,72.7 208.2,76.2 197,76.7 197.5,65.5 201,69 					"/>
					<polygon class="st3" points="207.4,66.3 211.2,66.1 214.7,69.7 203.5,70.2 204,59 207.5,62.5 					"/>
				</g>
				<g>
					<polygon class="st14" points="321.5,27.9 325.4,27.7 328.9,31.3 317.6,31.8 318.2,20.6 321.7,24.1 					"/>
					<polygon class="st14" points="328,21.4 331.9,21.2 335.4,24.7 324.2,25.3 324.7,14 328.2,17.6 					"/>
					<polygon class="st14" points="334.6,14.9 338.4,14.7 342,18.2 330.7,18.7 331.2,7.5 334.8,11 					"/>
				</g>
				<path class="st2" d="M195.2,116.2L195.2,116.2c3.8,3.8,10,3.8,13.8,0l74.7-74.5c3.8-3.8,3.8-10,0-13.8l0,0
					c-3.8-3.8-10-3.8-13.8,0l-74.7,74.5C191.4,106.2,191.4,112.3,195.2,116.2z"/>
			</g>
		</g>
	</g>
</g>
<g id="DESIGNED_BY_FREEPIK">
</g>
</svg>
