<?xml version="1.0" encoding="utf-8"?>
<!-- Generator: Adobe Illustrator 25.0.0, SVG Export Plug-In . SVG Version: 6.00 Build 0)  -->
<svg version="1.1" id="Capa_1" xmlns="http://www.w3.org/2000/svg" xmlns:xlink="http://www.w3.org/1999/xlink" x="0px" y="0px"
	 viewBox="0 0 126.8 122.3" style="enable-background:new 0 0 126.8 122.3;" xml:space="preserve">
<style type="text/css">
	.st0{fill:#F41F35;}
	.st1{fill:none;stroke:#F41F35;stroke-linejoin:round;}
</style>
<image style="display:none;overflow:visible;" width="139" height="130" xlink:href="logo-kinova.png"  transform="matrix(1 0 0 1 -6.0734 -2.5138)">
</image>
<g>
	<path class="st0" d="M7.1,54.4h54c0,0,51.9,3,61.8-53H81.6c0,0-18,35.5-74.5,45.7c0,0-3.1,0.4-3.1,3.4C4,50.5,3.5,54.4,7.1,54.4z"
		/>
	<path class="st1" d="M7.1,54.4h54c0,0,51.9,3,61.8-53H81.6c0,0-18,35.5-74.5,45.7c0,0-3.1,0.4-3.1,3.4C4,50.5,3.5,54.4,7.1,54.4z"
		/>
</g>
<g>
	<path class="st0" d="M7.1,67.5l54,0.1c0,0,51.9-2.9,61.7,53.1l-41.3,0c0,0-18-35.5-74.4-45.8c0,0-3.1-0.4-3.1-3.4
		C4,71.4,3.5,67.5,7.1,67.5z"/>
	<path class="st1" d="M7.1,67.5l54,0.1c0,0,51.9-2.9,61.7,53.1l-41.3,0c0,0-18-35.5-74.4-45.8c0,0-3.1-0.4-3.1-3.4
		C4,71.4,3.5,67.5,7.1,67.5z"/>
</g>
</svg>
